<svg width="35" height="35" viewBox="0 0 35 35" fill="none" xmlns="http://www.w3.org/2000/svg">
<path d="M27.7813 7.16042C26.4441 5.81016 24.8515 4.73954 23.0964 4.01095C21.3413 3.28236 19.4587 2.91038 17.5584 2.91667C9.59587 2.91667 3.10629 9.40626 3.10629 17.3688C3.10629 19.9208 3.77712 22.4 5.03129 24.5875L2.98962 32.0833L10.6459 30.0708C12.7605 31.2229 15.1375 31.8354 17.5584 31.8354C25.5209 31.8354 32.0105 25.3458 32.0105 17.3833C32.0105 13.5188 30.5084 9.88751 27.7813 7.16042ZM17.5584 29.3854C15.4 29.3854 13.2855 28.8021 11.4334 27.7083L10.9959 27.4458L6.44587 28.6417L7.65629 24.2083L7.36462 23.7563C6.16521 21.8416 5.52847 19.6281 5.52712 17.3688C5.52712 10.7479 10.923 5.35209 17.5438 5.35209C20.7521 5.35209 23.7709 6.60626 26.0313 8.88126C27.1507 9.99522 28.0378 11.3204 28.6412 12.7799C29.2445 14.2393 29.552 15.8041 29.5459 17.3833C29.575 24.0042 24.1792 29.3854 17.5584 29.3854ZM24.15 20.4021C23.7855 20.2271 22.0063 19.3521 21.6855 19.2208C21.35 19.1042 21.1167 19.0458 20.8688 19.3958C20.6209 19.7604 19.9355 20.5771 19.7313 20.8104C19.5271 21.0583 19.3084 21.0875 18.9438 20.8979C18.5792 20.7229 17.4125 20.3292 16.0417 19.1042C14.9625 18.1417 14.248 16.9604 14.0292 16.5958C13.825 16.2313 14 16.0417 14.1896 15.8521C14.35 15.6917 14.5542 15.4292 14.7292 15.225C14.9042 15.0208 14.9771 14.8604 15.0938 14.6271C15.2105 14.3792 15.1521 14.175 15.0646 14C14.9771 13.825 14.248 12.0458 13.9563 11.3167C13.6646 10.6167 13.3584 10.7042 13.1396 10.6896H12.4396C12.1917 10.6896 11.8125 10.7771 11.4771 11.1417C11.1563 11.5063 10.223 12.3813 10.223 14.1604C10.223 15.9396 11.5209 17.6604 11.6959 17.8938C11.8709 18.1417 14.248 21.7875 17.8646 23.3479C18.725 23.7271 19.3959 23.9458 19.9209 24.1063C20.7813 24.3833 21.5688 24.3396 22.1959 24.2521C22.8959 24.15 24.3396 23.3771 24.6313 22.5313C24.9375 21.6854 24.9375 20.9708 24.8355 20.8104C24.7334 20.65 24.5146 20.5771 24.15 20.4021Z" fill="#0FA958"/>
</svg>
